# Blender v2.79 (sub 0) OBJ File: ''
# www.blender.org
mtllib grada.mtl
o Cube
v 4.106475 -0.095903 -1.705693
v 4.106475 -0.095903 1.705693
v -4.106476 -0.095903 1.705693
v -4.106474 -0.095903 -1.705694
v 4.106477 0.095903 -1.705693
v 4.106472 0.095903 1.705695
v -4.106477 0.095903 1.705693
v -4.106475 0.095903 -1.705693
vn 0.0000 -1.0000 -0.0000
vn 0.0000 1.0000 0.0000
vn 1.0000 -0.0000 0.0000
vn -0.0000 -0.0000 1.0000
vn -1.0000 -0.0000 -0.0000
vn 0.0000 0.0000 -1.0000
usemtl Material
s off
f 1//1 3//1 4//1
f 8//2 6//2 5//2
f 5//3 2//3 1//3
f 6//4 3//4 2//4
f 3//5 8//5 4//5
f 1//6 8//6 5//6
f 1//1 2//1 3//1
f 8//2 7//2 6//2
f 5//3 6//3 2//3
f 6//4 7//4 3//4
f 3//5 7//5 8//5
f 1//6 4//6 8//6
