# Blender v2.79 (sub 0) OBJ File: ''
# www.blender.org
mtllib publico.mtl
o Cone
v 0.000000 -0.824791 -1.020000
v 0.198992 -0.824791 -1.000401
v 0.390337 -0.824791 -0.942357
v 0.566682 -0.824791 -0.848099
v 0.721249 -0.824791 -0.721249
v 0.848099 -0.824791 -0.566682
v 0.942357 -0.824791 -0.390337
v 1.000401 -0.824791 -0.198992
v 1.020000 -0.824791 -0.000000
v 1.000401 -0.824791 0.198992
v 0.942357 -0.824791 0.390337
v 0.848099 -0.824791 0.566682
v 0.721249 -0.824791 0.721249
v 0.566682 -0.824791 0.848099
v 0.390337 -0.824791 0.942357
v 0.198992 -0.824791 1.000401
v -0.000000 -0.824791 1.020000
v -0.198993 -0.824791 1.000401
v -0.390338 -0.824791 0.942357
v -0.566682 -0.824791 0.848099
v -0.721249 -0.824791 0.721248
v -0.848099 -0.824791 0.566681
v -0.942357 -0.824791 0.390336
v 0.000000 0.865209 0.000000
v -1.000401 -0.824791 0.198991
v -1.020000 -0.824791 -0.000001
v -1.000401 -0.824791 -0.198993
v -0.942357 -0.824791 -0.390338
v -0.848098 -0.824791 -0.566683
v -0.721248 -0.824791 -0.721250
v -0.566680 -0.824791 -0.848100
v -0.390336 -0.824791 -0.942358
v -0.198991 -0.824791 -1.000401
vn 0.0840 0.5149 -0.8531
vn 0.2488 0.5149 -0.8203
vn 0.4041 0.5149 -0.7560
vn 0.5438 0.5149 -0.6627
vn 0.6627 0.5149 -0.5438
vn 0.7560 0.5149 -0.4041
vn 0.8203 0.5149 -0.2488
vn 0.8531 0.5149 -0.0840
vn 0.8531 0.5149 0.0840
vn 0.8203 0.5149 0.2488
vn 0.7560 0.5149 0.4041
vn 0.6627 0.5149 0.5438
vn 0.5438 0.5149 0.6627
vn 0.4041 0.5149 0.7560
vn 0.2488 0.5149 0.8203
vn 0.0840 0.5149 0.8531
vn -0.0840 0.5149 0.8531
vn -0.2488 0.5149 0.8203
vn -0.4041 0.5149 0.7560
vn -0.5438 0.5149 0.6627
vn -0.6627 0.5149 0.5438
vn -0.7560 0.5149 0.4041
vn -0.8203 0.5149 0.2488
vn -0.8531 0.5149 0.0840
vn -0.8531 0.5149 -0.0840
vn -0.8203 0.5149 -0.2488
vn -0.7560 0.5149 -0.4041
vn -0.6627 0.5149 -0.5438
vn -0.5438 0.5149 -0.6627
vn -0.4041 0.5149 -0.7560
vn -0.2488 0.5149 -0.8203
vn -0.0840 0.5149 -0.8531
vn 0.0000 -1.0000 -0.0000
usemtl None
s off
f 1//1 24//1 2//1
f 2//2 24//2 3//2
f 3//3 24//3 4//3
f 4//4 24//4 5//4
f 5//5 24//5 6//5
f 6//6 24//6 7//6
f 7//7 24//7 8//7
f 8//8 24//8 9//8
f 9//9 24//9 10//9
f 10//10 24//10 11//10
f 11//11 24//11 12//11
f 12//12 24//12 13//12
f 13//13 24//13 14//13
f 14//14 24//14 15//14
f 15//15 24//15 16//15
f 16//16 24//16 17//16
f 17//17 24//17 18//17
f 18//18 24//18 19//18
f 19//19 24//19 20//19
f 20//20 24//20 21//20
f 21//21 24//21 22//21
f 22//22 24//22 23//22
f 23//23 24//23 25//23
f 25//24 24//24 26//24
f 26//25 24//25 27//25
f 27//26 24//26 28//26
f 28//27 24//27 29//27
f 29//28 24//28 30//28
f 30//29 24//29 31//29
f 31//30 24//30 32//30
f 32//31 24//31 33//31
f 33//32 24//32 1//32
f 16//33 25//33 33//33
f 33//33 1//33 2//33
f 2//33 3//33 4//33
f 4//33 5//33 8//33
f 5//33 6//33 8//33
f 6//33 7//33 8//33
f 8//33 9//33 10//33
f 10//33 11//33 8//33
f 11//33 12//33 8//33
f 12//33 13//33 16//33
f 13//33 14//33 16//33
f 14//33 15//33 16//33
f 16//33 17//33 18//33
f 18//33 19//33 16//33
f 19//33 20//33 16//33
f 20//33 21//33 22//33
f 22//33 23//33 20//33
f 23//33 25//33 20//33
f 25//33 26//33 27//33
f 27//33 28//33 25//33
f 28//33 29//33 25//33
f 29//33 30//33 31//33
f 31//33 32//33 29//33
f 32//33 33//33 29//33
f 33//33 2//33 8//33
f 2//33 4//33 8//33
f 8//33 12//33 16//33
f 16//33 20//33 25//33
f 25//33 29//33 33//33
f 33//33 8//33 16//33
